# xmcd CD database file
#
# Track frame offsets:
#	150
#	23521
#	44107
#	70006
#	86578
#	111031
#	132602
#	156280
#	177254
#	201224
#	222624
#
# Disc length: 3253 seconds
#
# Revision: 0
# Processed by: cddbd v1.5.2PL0 Copyright (c) Steve Scherf et al.
# Submitted via: CDex 1.70beta2
#
DISCID=a10cb30b
DTITLE=Eric Krasno - Reminisce
DYEAR=2009
DGENRE=Jazz
TTITLE0=Roll Out
TTITLE1=76
TTITLE2=Get Back
TTITLE3=Be Alright
TTITLE4=Enhorabuena
TTITLE5=Tilt
TTITLE6=Maniac Depression
TTITLE7=Song For Dilla
TTITLE8=Up And Out
TTITLE9=End of The Movie
TTITLE10=Domino
EXTD=YEAR: 2009
EXTT0=
EXTT1=
EXTT2=
EXTT3=
EXTT4=
EXTT5=
EXTT6=
EXTT7=
EXTT8=
EXTT9=
EXTT10=
PLAYORDER=
